<?xml version="1.0" encoding="utf-8"?>
<!-- Svg Vector Icons : http://www.onlinewebfonts.com/icon -->
<!DOCTYPE svg PUBLIC "-//W3C//DTD SVG 1.1//EN" "http://www.w3.org/Graphics/SVG/1.1/DTD/svg11.dtd">
<svg version="1.1" xmlns="http://www.w3.org/2000/svg" xmlns:xlink="http://www.w3.org/1999/xlink" x="0px" y="0px" viewBox="0 0 256 256" enable-background="new 0 0 256 256" xml:space="preserve">
<metadata> Svg Vector Icons : http://www.onlinewebfonts.com/icon </metadata>
<g><g><g><path fill="#000000" d="M119,10.7c-8.6,1.2-17.4,5.8-23,11.9c-2.8,3.1-7.5,11.5-7.5,13.4c0,0.6-1.2,0.3-4.1-1.1C78,32,70.7,31.1,64.1,32.4c-15.1,3.1-26,13-31.2,28.1c-0.9,2.6-1.2,5.5-1.2,10.2c0,7.6,1.5,12.9,5.2,18.5l2.2,3.4l-4.5,1.3c-18.9,5.8-29.4,28.6-22.6,49.2c3.7,11.2,10.8,18.6,21.3,22.4l3.9,1.4l-1.2,2.4c-3.3,6.5-4.5,16.2-2.8,23.7c3.3,14,15.6,26.2,30.2,29.9c6.1,1.6,14.1,1,19.7-1.3c6-2.6,6.6-2.7,6.6-1.5c0,0.5,1.2,3.3,2.6,6.2c4.5,9.1,13.8,16.1,24.3,18.6c5.1,1.2,14.6,1,19.6-0.3c13.6-3.5,24.2-13.9,27-26.4l0.8-3.4l2.5,1.5c3.5,2.3,10,4.3,15,4.7c11.5,0.9,25.5-5.5,33.1-15.4c5.8-7.3,8.5-15.2,8.5-24.1c-0.1-5-2-12.8-3.5-14.4c-1.2-1.2-0.5-2.3,1.9-3c8.2-2.6,16.7-10,20.4-17.9c10.5-22-0.1-48.3-21.9-54.3c-2.2-0.6-3.9-1.3-3.9-1.6c0-0.3,0.8-2.2,1.8-4.2c7-14.6,4.2-29.7-7.7-41.7c-8.3-8.4-16.9-12.1-27.6-12.1c-6,0-10.6,1.2-16.4,4.2c-2.2,1.1-4.1,2.1-4.3,2.2c-0.3,0.1-0.7-0.9-0.9-2.1c-0.9-4.8-4.9-11.3-9.6-15.7C142.9,12.8,130.9,9,119,10.7z M130.2,21.2c8.9,1.6,15.2,6.4,19.1,14.2l2.5,5l-0.1,13l-0.1,12.9l6.7-8.3c10.1-12.6,15.5-15.7,26.4-15.1c4.5,0.3,6.2,0.7,9.9,2.5c5.9,3,11.4,8.4,14.2,14.2c1.9,4.1,2.1,5.1,2.1,10.7c0,5.7-0.2,6.6-2.2,10.8c-1.8,3.9-3.4,5.8-10.8,12.9c-4.8,4.7-8.5,8.4-8.3,8.4c0.2,0,4.7-0.5,9.9-1c11-1.2,15.2-0.8,21.5,2c5.1,2.3,10.4,7.9,12.5,13.2c1.3,3.2,1.6,5,1.6,11.7c0,7.5-0.1,8.1-2,12.2c-2.9,6-6.1,9.3-11.8,12.1c-4.3,2.2-5.6,2.4-12.2,3c-4.1,0.3-8.3,0.5-9.4,0.5l-1.9,0.1l3,3.1c1.6,1.8,4.3,4.8,6,6.9c8.7,10.9,7.9,24.3-1.9,34.7c-10.9,11.4-26.2,12.9-36.9,3.5c-1.9-1.6-6.6-7.2-10.4-12.1c-3.8-5-7-9.1-7.1-9.1c-0.1,0,0.7,5.8,1.8,12.8c1.8,11.7,1.9,13.2,1.2,17.4c-2,11.5-9.4,18.9-21.4,21.5c-10.8,2.3-22.5-1.6-28.3-9.5c-3.7-5-4.9-10-4.9-19.9v-8.5l-6.9,6.3c-8.2,7.5-12.1,9.5-19.2,10c-13.9,0.9-27.1-9.8-29.8-24.5c-1.5-8.1,1.4-15.1,9.8-24.5l6-6.6l-9.4-0.3c-7.8-0.3-10-0.6-13.2-1.8c-16.9-6.8-21.5-31.4-8.5-45.3c6.8-7.2,13.8-8.9,30.7-7c5.3,0.7,9.8,1,10,0.9c0.1-0.1-3.7-3.3-8.7-7.1C50.4,90,46.7,86,44,80.4c-7-15,4.3-34.4,22-37.7c8.4-1.6,16.1,1.4,24.7,9.4c6.2,5.8,6.3,5.8,6.3-1.8c0-9.1,2.8-16.5,8.1-21.8C111.6,22.1,120.6,19.4,130.2,21.2z"/><path fill="#000000" d="M119.4,95.7c-14.6,3.9-25,17.4-25,32.4c0,18.2,13.4,32.6,31.5,33.9c21.3,1.5,38.8-17.7,35.4-38.8C158.2,103.6,138.3,90.6,119.4,95.7z M136.5,106.7c7.4,3.1,12,8.3,14.1,16.3c2.8,10.4-2.6,21.6-12.8,26.6c-3.3,1.6-4.5,1.8-9.6,1.8c-5.4,0-6.4-0.2-10.3-2.2c-5.3-2.6-9.8-7.3-11.6-12.3c-1.8-4.9-1.8-12.1,0-16.9c1.4-3.9,5.9-9.4,9.5-11.6C121.5,104.8,130.2,104.1,136.5,106.7z"/></g></g></g>
</svg>